<?xml version="1.0" standalone="no"?><!DOCTYPE svg PUBLIC "-//W3C//DTD SVG 1.1//EN" "http://www.w3.org/Graphics/SVG/1.1/DTD/svg11.dtd"><svg t="1531212570873" class="icon" style="" viewBox="0 0 1024 1024" version="1.1" xmlns="http://www.w3.org/2000/svg" p-id="6348" xmlns:xlink="http://www.w3.org/1999/xlink" width="16" height="16"><defs><style type="text/css"></style></defs><path d="M0 92.68C0 41.493 41.41 0 92.68 0h838.64C982.507 0 1024 41.41 1024 92.68v838.64c0 51.186-41.41 92.68-92.68 92.68H92.68C41.493 1024 0 982.59 0 931.32V92.68z m46.545 0v838.64c0 25.528 20.62 46.135 46.134 46.135h838.642c25.527 0 46.134-20.62 46.134-46.134V92.679c0-25.527-20.62-46.134-46.134-46.134H92.679c-25.527 0-46.134 20.62-46.134 46.134z m418.91 372.775H186.182v93.09h279.273v279.273h93.09V558.545h279.273v-93.09H558.545V186.182h-93.09v279.273z" p-id="6349" fill="#333333"></path></svg>