<?xml version="1.0" standalone="no"?><!DOCTYPE svg PUBLIC "-//W3C//DTD SVG 1.1//EN" "http://www.w3.org/Graphics/SVG/1.1/DTD/svg11.dtd"><svg t="1531212489282" class="icon" style="" viewBox="0 0 1024 1024" version="1.1" xmlns="http://www.w3.org/2000/svg" p-id="3420" xmlns:xlink="http://www.w3.org/1999/xlink" width="16" height="16"><defs><style type="text/css"></style></defs><path d="M824.2 912H91.7C65.5 912 44 890.6 44 864.4V211.5h780.2c26.2 0 47.6 21.4 47.6 47.6v605.2c0.1 26.3-21.4 47.7-47.6 47.7z" fill="#F9AE06" p-id="3421"></path><path d="M817.1 912H81.3C56 912 39.6 892.4 45 868.4l109-485.9c5.4-24 30.5-43.6 55.8-43.6h735.7c25.3 0 41.7 19.6 36.3 43.6l-109 485.9c-5.3 24-30.4 43.6-55.7 43.6z" fill="#FECC45" p-id="3422"></path><path d="M362.4 211.5H44v-47.8c0-26.3 21.4-47.7 47.7-47.7h141.6c11.4 0 22.4 4.1 31 11.5l98.1 84z" fill="#F9AE06" p-id="3423"></path></svg>