<?xml version="1.0" standalone="no"?><!DOCTYPE svg PUBLIC "-//W3C//DTD SVG 1.1//EN" "http://www.w3.org/Graphics/SVG/1.1/DTD/svg11.dtd"><svg t="1531224293280" class="icon" style="" viewBox="0 0 1024 1024" version="1.1" xmlns="http://www.w3.org/2000/svg" p-id="1908" xmlns:xlink="http://www.w3.org/1999/xlink" width="16" height="16"><defs><style type="text/css"></style></defs><path d="M343.8 560.6c-0.6 0.8-1.1 1.7-1.4 2.6l-45 170.6c-2.6 10 0.1 20.6 7.2 28.1 7 7.3 17.4 10.1 27.2 7.4l164-46.3 0.5 0.1c1.9 0 3.8-0.5 5.1-2l438.2-452.9c13.1-13.4 20.1-31.8 20.1-51.8 0-22.6-9.3-45.2-25.4-62L893 111.6C877.4 95 855.8 85.5 833 85c-19.3 0-37.1 7.5-50.2 20.9L344.6 559c-0.5 0.5-0.4 1.1-0.8 1.6z m552.9-336.8l-43.6 45-70.6-74.1 42.9-44.4c6.8-7 20-6.1 27.7 2l41.5 42.8c4.3 4.5 6.7 10.4 6.7 16.2 0.2 4.7-1.5 9.2-4.6 12.5zM421.8 567.7L738 240.8l70.6 74.2L493 641.2l-71.2-73.5m-57.6 132.7l22.9-86.8 60.9 63-83.8 23.8m560.3-297.1c-17 0.4-30.5 14.4-30.3 31.4V857c0.4 21.8-16.9 39.7-38.7 40.1H164.3c-21.8-0.4-39.1-18.3-38.9-40.1V167.6c-0.3-21.8 17-39.8 38.9-40.2h445.1c17-0.3 30.5-14.3 30.2-31.2 0.2-16.9-13.3-30.8-30.2-31.2H159.8C107.6 65 65 109 65 163v698.9c0 54 42.5 97.9 94.8 97.9H860c52.3 0 94.8-44 94.8-97.9V434.4c0-16.9-13.4-30.7-30.3-31.1z" fill="#ffffff" p-id="1909"></path></svg>